@startuml
skinparam linetype ortho

class ztb_project_vir_bid  <<虚拟分标>>{
    long id 主键
    long project_item_id 分标ID
    String name 虚拟分标名称
}

class ztb_project_item <<分标信息表>>{
    ID 主键
    project_item_code 分标编号
    project_item_name 分标名称
    project_id 项目ID
}

ztb_project_vir_bid o--> ztb_project_item : project_item_id -> id

class ztb_project <<项目信息表>> {
    id 主键
    project_code 项目编码
    project_name 项目名称
}
ztb_project_item o--> ztb_project : project_id -> id

class ztb_catalog_data <<模板节点资质信息表>> {
    id 主键
    catalog_id 模板ID
    record_id 资质信息记录ID
    project_id 项目ID
    project_item_id 分标ID
    vir_bid_id 分标ID
    user_id 用户ID
    leaves_id 目录节点ID
}

ztb_catalog_data o--> ztb_catalog : catalog_id -> id
ztb_catalog_data o--> ztb_catalog_record : record_id -> id
ztb_catalog_data o--> ztb_project : project_id -> id
ztb_catalog_data o--> ztb_project_item: project_item_id -> id
ztb_catalog_data o--> ztb_project_vir_bid : vir_bid_id -> id
ztb_catalog_data o--> ztb_catalog_leaves: leaves_id -> id


class ztb_catalog <<模板表>> {
    ID 主键
    name 名称
}

class ztb_catalog_leaves <<模板节点表>> {
    ID 主键
    parent_id 父级节点ID
    name 节点名称
    catalog_id 模板ID
}
ztb_catalog_leaves o--> ztb_catalog: catalog_id -> id

class ztb_catalog_record <<资质信息目录供应商关联表>> {
    id 主键
    vir_bid_id 虚拟分标ID
    project_id 项目ID
    project_item_id 分标ID
    catalog_id 目录ID
    user_id 用户ID
}

ztb_catalog_record o--> ztb_project_vir_bid: vir_bid_id -> id
ztb_catalog_record o--> ztb_project : project_id -> id
ztb_catalog_record o--> ztb_project_item : project_item_id -> id
ztb_catalog_record o--> ztb_catalog : catalog_id -> id




@enduml